<svg width="571" height="561" viewBox="0 0 571 561" fill="none" xmlns="http://www.w3.org/2000/svg">
<path d="M280.148 485.34C393.424 485.34 485.251 393.512 485.251 280.236C485.251 166.961 393.424 75.1328 280.148 75.1328C166.873 75.1328 75.0446 166.961 75.0446 280.236C75.0446 393.512 166.873 485.34 280.148 485.34Z" stroke="#00A5C2" stroke-width="150" stroke-miterlimit="10" stroke-dasharray="1 30"/>
<path d="M280.148 370.54C330.021 370.54 370.452 330.11 370.452 280.236C370.452 230.363 330.021 189.933 280.148 189.933C230.275 189.933 189.844 230.363 189.844 280.236C189.844 330.11 230.275 370.54 280.148 370.54Z" stroke="#FF6C2D" stroke-width="50" stroke-miterlimit="10" stroke-dasharray="1 20"/>
<rect x="342" y="272" width="229" height="18" fill="#042630"/>
<path d="M363.944 275.377V280.805C363.952 281.35 363.83 281.888 363.59 282.377C363.35 282.846 362.972 283.229 362.507 283.477C361.94 283.766 361.308 283.906 360.671 283.883C360.247 283.93 359.819 283.883 359.415 283.744C359.012 283.606 358.644 283.381 358.338 283.084C358.033 282.788 357.796 282.427 357.646 282.029C357.496 281.63 357.436 281.204 357.471 280.779V275.377H358.533V280.819C358.498 281.398 358.693 281.968 359.078 282.403C359.301 282.604 359.562 282.757 359.846 282.854C360.13 282.95 360.431 282.989 360.73 282.966C361.033 282.994 361.338 282.954 361.624 282.85C361.91 282.746 362.169 282.58 362.383 282.364C362.736 281.923 362.918 281.37 362.894 280.805V275.377H363.944Z" fill="#FF6C2D"/>
<path d="M370.41 282.03C370.429 282.297 370.379 282.564 370.264 282.806C370.149 283.048 369.973 283.257 369.754 283.411C369.205 283.753 368.564 283.917 367.918 283.883C367.537 283.889 367.157 283.854 366.784 283.778C366.493 283.715 366.211 283.616 365.944 283.483V282.547C366.238 282.686 366.543 282.8 366.856 282.888C367.208 282.997 367.575 283.052 367.944 283.051C368.342 283.084 368.74 282.995 369.085 282.796C369.194 282.724 369.283 282.627 369.344 282.513C369.406 282.398 369.439 282.271 369.44 282.141C369.439 281.989 369.394 281.841 369.308 281.715C369.183 281.558 369.024 281.431 368.843 281.342C368.534 281.178 368.214 281.036 367.885 280.917C367.527 280.782 367.176 280.627 366.836 280.452C366.578 280.315 366.354 280.122 366.18 279.889C366.014 279.637 365.931 279.339 365.944 279.037C365.936 278.793 365.993 278.55 366.108 278.334C366.223 278.118 366.392 277.936 366.6 277.806C367.115 277.496 367.711 277.346 368.312 277.374C368.673 277.372 369.034 277.411 369.387 277.492C369.706 277.565 370.018 277.665 370.318 277.793L369.971 278.618C369.698 278.506 369.417 278.412 369.131 278.337C368.841 278.258 368.541 278.218 368.239 278.219C367.903 278.198 367.568 278.268 367.269 278.422C367.169 278.477 367.086 278.558 367.028 278.656C366.969 278.753 366.937 278.864 366.934 278.978C366.926 279.142 366.98 279.304 367.085 279.43C367.233 279.576 367.407 279.693 367.597 279.777C367.911 279.927 368.233 280.06 368.561 280.177C368.912 280.307 369.253 280.46 369.584 280.635C369.845 280.77 370.07 280.965 370.24 281.205C370.376 281.457 370.435 281.744 370.41 282.03Z" fill="#FF6C2D"/>
<path d="M374.666 277.354C375.154 277.341 375.635 277.463 376.057 277.708C376.45 277.938 376.764 278.283 376.955 278.697C377.174 279.166 377.282 279.679 377.27 280.196V280.818H372.955C372.927 281.409 373.121 281.988 373.499 282.442C373.689 282.633 373.918 282.782 374.17 282.878C374.422 282.974 374.692 283.015 374.962 282.999C375.321 283.005 375.68 282.968 376.031 282.888C376.359 282.81 376.679 282.703 376.988 282.567V283.47C376.681 283.609 376.36 283.715 376.031 283.785C375.663 283.856 375.29 283.889 374.916 283.883C374.364 283.894 373.819 283.768 373.329 283.516C372.873 283.271 372.503 282.895 372.266 282.436C371.993 281.885 371.86 281.276 371.879 280.661C371.864 280.054 371.983 279.45 372.227 278.893C372.433 278.422 372.775 278.024 373.21 277.75C373.645 277.475 374.152 277.338 374.666 277.354ZM374.666 278.199C374.448 278.188 374.23 278.225 374.028 278.306C373.825 278.387 373.642 278.512 373.493 278.671C373.19 279.044 373.011 279.501 372.981 279.98H376.195C376.213 279.514 376.079 279.055 375.814 278.671C375.676 278.503 375.498 278.371 375.297 278.289C375.095 278.207 374.876 278.176 374.66 278.199H374.666Z" fill="#FF6C2D"/>
<path d="M382.103 277.354H382.477L382.845 277.407L382.687 278.369C382.575 278.341 382.461 278.321 382.346 278.31C382.233 278.301 382.119 278.301 382.005 278.31C381.684 278.312 381.37 278.405 381.1 278.579C380.818 278.762 380.592 279.017 380.444 279.319C380.267 279.66 380.179 280.041 380.188 280.425V283.785H379.159V277.492H380.005L380.123 278.638H380.169C380.368 278.293 380.633 277.991 380.949 277.747C381.278 277.489 381.685 277.35 382.103 277.354Z" fill="#FF6C2D"/>
<path d="M476.072 283.765H475.016V276.307H472.393V275.377H478.682V276.307H476.059L476.072 283.765Z" fill="white"/>
<path d="M481.555 277.361C482.167 277.31 482.776 277.493 483.26 277.871C483.46 278.085 483.612 278.338 483.707 278.615C483.802 278.891 483.837 279.185 483.811 279.476V283.765H483.063L482.86 282.874H482.814C482.577 283.184 482.28 283.442 481.942 283.634C481.553 283.818 481.125 283.903 480.696 283.883C480.183 283.902 479.68 283.742 479.272 283.431C479.075 283.255 478.922 283.035 478.824 282.79C478.726 282.545 478.687 282.28 478.708 282.017C478.697 281.731 478.759 281.448 478.889 281.193C479.019 280.939 479.212 280.722 479.449 280.563C480.144 280.169 480.934 279.977 481.732 280.006L482.801 279.974V279.594C482.823 279.399 482.805 279.201 482.746 279.014C482.687 278.827 482.59 278.654 482.46 278.507C482.189 278.286 481.844 278.176 481.496 278.199C481.177 278.196 480.861 278.245 480.558 278.343C480.271 278.436 479.991 278.548 479.718 278.677L479.404 277.904C479.713 277.74 480.041 277.613 480.381 277.524C480.763 277.416 481.158 277.361 481.555 277.361ZM482.788 280.687H481.863C481.294 280.662 480.729 280.794 480.23 281.067C480.083 281.172 479.964 281.312 479.885 281.474C479.806 281.637 479.769 281.817 479.777 281.997C479.767 282.142 479.79 282.287 479.846 282.421C479.902 282.556 479.988 282.675 480.099 282.77C480.34 282.945 480.634 283.032 480.932 283.018C481.408 283.029 481.872 282.871 482.243 282.573C482.429 282.403 482.574 282.192 482.666 281.957C482.758 281.722 482.795 281.469 482.774 281.218L482.788 280.687Z" fill="white"/>
<path d="M488.998 277.354H489.379L489.739 277.407L489.615 278.363C489.5 278.335 489.384 278.315 489.267 278.304C489.156 278.295 489.044 278.295 488.933 278.304C488.609 278.304 488.293 278.397 488.021 278.572C487.739 278.755 487.513 279.011 487.365 279.312C487.193 279.656 487.108 280.035 487.116 280.419V283.778H486.093V277.485H486.939L487.057 278.631H487.103C487.302 278.287 487.568 277.984 487.883 277.741C488.202 277.493 488.594 277.357 488.998 277.354Z" fill="white"/>
<path d="M493.307 277.354C493.696 277.348 494.081 277.429 494.435 277.59C494.775 277.751 495.069 277.997 495.288 278.304H495.347L495.484 277.472H496.311V283.87C496.339 284.237 496.292 284.606 496.174 284.955C496.056 285.304 495.868 285.625 495.622 285.9C495.326 286.144 494.985 286.327 494.618 286.44C494.251 286.552 493.866 286.591 493.484 286.555C492.708 286.583 491.934 286.447 491.215 286.155V285.206C491.939 285.558 492.738 285.729 493.543 285.703C493.783 285.72 494.024 285.686 494.25 285.604C494.476 285.522 494.682 285.392 494.855 285.225C495.016 285.049 495.14 284.842 495.22 284.617C495.3 284.392 495.334 284.154 495.32 283.916V283.667C495.32 283.575 495.32 283.438 495.32 283.261C495.32 283.084 495.32 282.96 495.32 282.894H495.274C495.059 283.211 494.764 283.466 494.418 283.632C494.073 283.799 493.689 283.872 493.307 283.844C492.944 283.86 492.582 283.791 492.25 283.642C491.918 283.493 491.627 283.268 491.398 282.986C490.912 282.285 490.681 281.439 490.743 280.589C490.687 279.742 490.918 278.9 491.398 278.199C491.626 277.916 491.917 277.691 492.25 277.544C492.582 277.397 492.944 277.332 493.307 277.354ZM493.451 278.219C493.208 278.213 492.967 278.271 492.752 278.385C492.537 278.5 492.356 278.668 492.225 278.873C491.905 279.415 491.754 280.04 491.792 280.668C491.751 281.291 491.9 281.912 492.218 282.449C492.356 282.65 492.544 282.813 492.764 282.92C492.983 283.028 493.227 283.078 493.471 283.064C493.726 283.087 493.983 283.053 494.224 282.965C494.464 282.877 494.682 282.736 494.861 282.554C495.194 282.071 495.349 281.488 495.301 280.903V280.655C495.356 280.008 495.197 279.362 494.848 278.815C494.682 278.614 494.47 278.456 494.231 278.352C493.992 278.249 493.731 278.203 493.471 278.219H493.451Z" fill="white"/>
<path d="M501.059 277.354C501.544 277.342 502.023 277.465 502.442 277.708C502.836 277.94 503.152 278.284 503.348 278.697C503.561 279.167 503.666 279.68 503.656 280.196V280.818H499.34C499.312 281.409 499.506 281.988 499.885 282.442C500.075 282.633 500.304 282.782 500.556 282.878C500.808 282.974 501.078 283.015 501.347 282.999C501.707 283.006 502.066 282.969 502.416 282.888C502.745 282.81 503.065 282.703 503.374 282.567V283.47C503.069 283.61 502.75 283.715 502.423 283.785C502.053 283.855 501.678 283.888 501.301 283.883C500.75 283.894 500.205 283.768 499.714 283.516C499.259 283.271 498.889 282.895 498.652 282.436C498.381 281.885 498.25 281.275 498.271 280.661C498.254 280.054 498.371 279.451 498.613 278.893C498.82 278.426 499.16 278.03 499.59 277.754C500.03 277.481 500.541 277.342 501.059 277.354ZM501.059 278.199C500.841 278.189 500.623 278.225 500.42 278.307C500.217 278.388 500.035 278.512 499.885 278.671C499.582 279.043 499.403 279.501 499.373 279.98H502.587C502.604 279.515 502.473 279.057 502.213 278.671C502.074 278.5 501.894 278.368 501.69 278.286C501.486 278.203 501.264 278.174 501.046 278.199H501.059Z" fill="white"/>
<path d="M507.656 283.038C507.817 283.038 507.977 283.025 508.135 282.999C508.272 282.986 508.406 282.955 508.535 282.907V283.693C508.389 283.764 508.231 283.811 508.069 283.831C507.874 283.864 507.677 283.881 507.479 283.883C507.167 283.885 506.858 283.827 506.568 283.713C506.291 283.59 506.061 283.381 505.912 283.117C505.716 282.754 505.625 282.343 505.649 281.932V278.271H504.758V277.773L505.663 277.361L506.076 276.051H506.686V277.498H508.509V278.297H506.686V281.938C506.673 282.091 506.691 282.245 506.738 282.391C506.786 282.537 506.861 282.673 506.961 282.789C507.152 282.959 507.401 283.049 507.656 283.038Z" fill="white"/>
<path d="M35.2466 285.634C38.1442 285.634 40.4931 283.289 40.4931 280.396C40.4931 277.502 38.1442 275.157 35.2466 275.157C32.349 275.157 30 277.502 30 280.396C30 283.289 32.349 285.634 35.2466 285.634Z" fill="#00A5C2"/>
<path d="M527.263 324.107C530.161 324.107 532.51 321.761 532.51 318.868C532.51 315.975 530.161 313.629 527.263 313.629C524.366 313.629 522.017 315.975 522.017 318.868C522.017 321.761 524.366 324.107 527.263 324.107Z" fill="#00A5C2"/>
<path d="M279.855 537.326C282.753 537.326 285.102 534.981 285.102 532.088C285.102 529.195 282.753 526.849 279.855 526.849C276.958 526.849 274.609 529.195 274.609 532.088C274.609 534.981 276.958 537.326 279.855 537.326Z" fill="#00A5C2"/>
<path d="M279.719 36.4772C282.617 36.4772 284.966 34.1318 284.966 31.2386C284.966 28.3454 282.617 26 279.719 26C276.822 26 274.473 28.3454 274.473 31.2386C274.473 34.1318 276.822 36.4772 279.719 36.4772Z" fill="#00A5C2"/>
<path d="M201.279 129.737C204.176 129.737 206.525 127.392 206.525 124.499C206.525 121.606 204.176 119.26 201.279 119.26C198.381 119.26 196.032 121.606 196.032 124.499C196.032 127.392 198.381 129.737 201.279 129.737Z" fill="#00A5C2"/>
<path d="M194.355 452.166C197.252 452.166 199.601 449.821 199.601 446.928C199.601 444.034 197.252 441.689 194.355 441.689C191.457 441.689 189.108 444.034 189.108 446.928C189.108 449.821 191.457 452.166 194.355 452.166Z" fill="#00A5C2"/>
<path d="M364.291 120.21C367.189 120.21 369.538 117.864 369.538 114.971C369.538 112.078 367.189 109.732 364.291 109.732C361.394 109.732 359.045 112.078 359.045 114.971C359.045 117.864 361.394 120.21 364.291 120.21Z" fill="#00A5C2"/>
<path d="M435.521 207.519C438.418 207.519 440.767 205.174 440.767 202.281C440.767 199.387 438.418 197.042 435.521 197.042C432.623 197.042 430.274 199.387 430.274 202.281C430.274 205.174 432.623 207.519 435.521 207.519Z" fill="#00A5C2"/>
<path d="M107.977 229.501C110.875 229.501 113.224 227.155 113.224 224.262C113.224 221.369 110.875 219.023 107.977 219.023C105.08 219.023 102.731 221.369 102.731 224.262C102.731 227.155 105.08 229.501 107.977 229.501Z" fill="#00A5C2"/>
<path d="M187.889 306.072C190.787 306.072 193.136 303.727 193.136 300.833C193.136 297.94 190.787 295.595 187.889 295.595C184.991 295.595 182.642 297.94 182.642 300.833C182.642 303.727 184.991 306.072 187.889 306.072Z" fill="#FF6C2D"/>
<path d="M324.761 376.587C327.659 376.587 330.008 374.241 330.008 371.348C330.008 368.455 327.659 366.109 324.761 366.109C321.864 366.109 319.515 368.455 319.515 371.348C319.515 374.241 321.864 376.587 324.761 376.587Z" fill="#FF6C2D"/>
<path d="M359.388 221.939C362.286 221.939 364.635 219.594 364.635 216.701C364.635 213.807 362.286 211.462 359.388 211.462C356.491 211.462 354.142 213.807 354.142 216.701C354.142 219.594 356.491 221.939 359.388 221.939Z" fill="#FF6C2D"/>
<path d="M241.961 363.929C244.858 363.929 247.207 361.583 247.207 358.69C247.207 355.797 244.858 353.451 241.961 353.451C239.063 353.451 236.714 355.797 236.714 358.69C236.714 361.583 239.063 363.929 241.961 363.929Z" fill="#FF6C2D"/>
<path d="M220.532 209.572C223.429 209.572 225.778 207.227 225.778 204.334C225.778 201.441 223.429 199.095 220.532 199.095C217.634 199.095 215.285 201.441 215.285 204.334C215.285 207.227 217.634 209.572 220.532 209.572Z" fill="#FF6C2D"/>
<path d="M446.375 369.095C449.272 369.095 451.621 366.75 451.621 363.857C451.621 360.963 449.272 358.618 446.375 358.618C443.477 358.618 441.128 360.963 441.128 363.857C441.128 366.75 443.477 369.095 446.375 369.095Z" fill="#00A5C2"/>
<path d="M117.624 368.582C120.522 368.582 122.871 366.236 122.871 363.343C122.871 360.45 120.522 358.104 117.624 358.104C114.727 358.104 112.378 360.45 112.378 363.343C112.378 366.236 114.727 368.582 117.624 368.582Z" fill="#00A5C2"/>
<path d="M365.897 452.906C368.794 452.906 371.143 450.561 371.143 447.668C371.143 444.775 368.794 442.429 365.897 442.429C362.999 442.429 360.65 444.775 360.65 447.668C360.65 450.561 362.999 452.906 365.897 452.906Z" fill="#00A5C2"/>
<path d="M460.475 465.278C463.372 465.278 465.721 462.933 465.721 460.04C465.721 457.147 463.372 454.801 460.475 454.801C457.577 454.801 455.228 457.147 455.228 460.04C455.228 462.933 457.577 465.278 460.475 465.278Z" fill="#00A5C2"/>
<path d="M103.524 107.983C106.422 107.983 108.771 105.638 108.771 102.744C108.771 99.8513 106.422 97.5059 103.524 97.5059C100.627 97.5059 98.2776 99.8513 98.2776 102.744C98.2776 105.638 100.627 107.983 103.524 107.983Z" fill="#00A5C2"/>
<path d="M462.698 102.876C465.595 102.876 467.944 100.53 467.944 97.637C467.944 94.7438 465.595 92.3984 462.698 92.3984C459.8 92.3984 457.451 94.7438 457.451 97.637C457.451 100.53 459.8 102.876 462.698 102.876Z" fill="#00A5C2"/>
<path d="M118.365 446.386C121.263 446.386 123.612 444.04 123.612 441.147C123.612 438.254 121.263 435.909 118.365 435.909C115.468 435.909 113.119 438.254 113.119 441.147C113.119 444.04 115.468 446.386 118.365 446.386Z" fill="#00A5C2"/>
<mask id="mask0" mask-type="alpha" maskUnits="userSpaceOnUse" x="229" y="230" width="101" height="100">
<path d="M279.059 329.965C306.706 329.965 329.118 307.587 329.118 279.983C329.118 252.378 306.706 230 279.059 230C251.412 230 229 252.378 229 279.983C229 307.587 251.412 329.965 279.059 329.965Z" fill="#FF6C2D"/>
</mask>
<g mask="url(#mask0)">
<path d="M284.694 240.203C283.683 240.203 282.673 240.359 281.74 240.708C280.845 241.019 280.029 241.447 279.096 241.525C279.018 241.525 278.94 241.525 278.863 241.525C277.852 241.525 276.88 241.136 275.908 240.903C275.247 240.747 274.586 240.67 273.925 240.67C270.504 240.67 267.316 242.574 264.595 244.557C261.99 246.462 260.902 249.767 258.491 251.555C257.208 252.488 255.342 252.449 254.137 253.577C252.465 255.132 253.048 257.698 251.416 259.253C250.444 260.186 248.928 260.263 247.8 260.963C246.362 261.819 245.973 262.829 245.973 263.957C245.973 265.201 246.478 266.6 246.478 267.961C246.478 268.389 246.439 268.855 246.284 269.283C245.701 271.11 243.29 271.965 243.018 273.832C242.979 273.948 242.979 274.104 242.979 274.22C242.979 275.97 244.923 277.253 246.634 277.914C248.461 278.652 250.677 279.663 250.833 281.646C250.833 281.724 250.833 281.801 250.833 281.879C250.833 282.773 250.444 283.628 250.444 284.523C250.444 284.756 250.483 284.95 250.521 285.184C250.91 286.428 252.349 286.972 253.671 287.166C257.869 287.749 258.336 291.365 262.223 291.637C264.128 291.793 265.489 292.454 267.355 292.842C267.899 292.959 268.444 292.998 268.988 292.998C269.571 292.998 270.154 292.959 270.776 292.92C271.36 292.881 271.943 292.842 272.565 292.842C272.915 292.842 273.264 292.842 273.614 292.881C273.964 292.92 274.353 292.959 274.703 292.959C276.452 292.959 278.124 292.492 279.835 292.065C281.545 291.598 283.217 291.171 284.966 291.171C285.161 291.171 285.316 291.171 285.511 291.171C286.91 291.248 288.971 291.87 290.798 291.87C292.042 291.87 293.208 291.559 293.869 290.587C294.219 290.082 294.375 289.421 294.725 288.916C296.007 287.05 299.195 287.905 300.828 286.35C302.15 285.028 301.761 282.695 302.85 281.179C304.521 278.924 308.565 279.663 310.159 277.369C310.625 276.67 310.781 275.892 310.781 275.076C310.781 273.909 310.509 272.626 310.509 271.421C310.509 270.838 310.586 270.216 310.781 269.672C311.131 268.739 311.908 267.961 312.452 267.106C313.074 266.095 313.385 264.929 313.385 263.724C313.385 263.529 313.385 263.296 313.347 263.101C313.191 261.197 312.258 259.369 310.703 258.242C308.681 256.803 305.61 256.259 304.871 253.849C304.638 253.071 304.677 252.216 304.599 251.4C304.327 249.417 302.85 247.628 300.945 246.968C299.079 246.346 296.979 246.773 295.152 245.996C293.442 245.257 292.314 243.624 290.876 242.419C289.048 240.942 286.871 240.203 284.694 240.203Z" fill="#165265"/>
<path d="M287.377 283.434C287.338 282.929 287.338 282.423 287.416 281.957L287.727 279.43C288.271 279.313 288.815 279.119 289.282 278.847C289.67 278.613 290.02 278.302 290.331 277.991C291.42 276.864 292.081 275.387 292.742 273.948C293.791 271.616 294.841 269.244 294.608 266.6C294.569 266.095 294.491 265.629 294.375 265.162C294.297 264.734 294.18 264.268 294.141 263.801C293.986 262.557 294.064 261.274 294.025 259.991C293.869 256.337 291.187 256.493 287.882 255.365C284.267 254.16 283.139 252.099 282.984 252.527C282.984 252.527 282.4 260.108 271.321 262.246C271.321 262.246 270.893 263.451 270.971 265.59C270.971 265.862 270.971 266.173 271.01 266.523C271.087 267.611 271.321 268.855 271.748 270.294C272.409 272.471 274.314 274.376 276.102 276.242L276.258 277.797C276.452 279.819 276.452 281.879 276.297 283.901C276.219 284.717 275.752 285.417 275.092 285.845L267.277 289.343L263.74 290.937L262.34 291.559C264.206 291.715 265.528 292.376 267.355 292.726C267.899 292.842 268.444 292.881 268.988 292.881C269.571 292.881 270.154 292.842 270.776 292.804C271.359 292.765 271.943 292.726 272.565 292.726C272.914 292.726 273.264 292.726 273.614 292.765C273.964 292.804 274.353 292.842 274.703 292.842C276.452 292.842 278.124 292.376 279.835 291.948C281.545 291.482 283.217 291.054 284.966 291.054C285.161 291.054 285.316 291.054 285.511 291.054C286.91 291.132 288.971 291.754 290.798 291.754C292.042 291.754 293.208 291.443 293.869 290.471C294.219 289.966 294.375 289.305 294.724 288.799C294.841 288.605 294.997 288.488 295.152 288.333C291.809 286.816 288.815 285.456 288.815 285.456C287.96 285.028 287.454 284.251 287.377 283.434Z" fill="#042630"/>
<path d="M303.822 317.14C303.433 317.957 303.044 318.657 302.733 319.201C302.344 319.862 302.072 320.251 302.072 320.251V320.484L301.567 324.177L299.079 342.022L299.04 342.41L299.001 342.76C299.001 342.76 297.601 343.693 295.152 344.743C292.12 346.026 287.493 347.542 281.817 347.737C281.39 347.737 280.962 347.775 280.495 347.775C274.392 347.775 269.182 346.181 265.8 344.782C263.934 344.004 262.612 343.305 261.99 342.955C261.718 342.799 261.601 342.721 261.601 342.721L260.318 331.914L260.163 330.553L259.23 322.389L259.191 322.233L258.802 318.734L256.508 299.257V299.179L255.614 291.365L256.819 290.821L256.975 290.743L261.562 288.683L265.1 287.089L272.914 283.59C273.614 283.201 274.042 282.462 274.12 281.646C274.275 279.624 274.275 277.564 274.081 275.542L273.809 272.51L286.016 273.559L285.277 279.702C285.2 280.207 285.2 280.674 285.238 281.179C285.316 282.035 285.822 282.812 286.599 283.201C286.599 283.201 290.914 285.145 294.997 287.011C298.573 288.683 301.994 290.277 302.111 290.432C302.111 290.51 301.217 295.914 301.295 298.441C301.45 301.473 302.267 305.05 304.56 308.432C304.599 308.471 304.638 308.549 304.677 308.588C306.115 311.115 305.027 314.613 303.822 317.14Z" fill="#EFBDAD"/>
<path d="M285.977 273.598L279.213 273.015L285.899 274.376L285.977 273.598Z" fill="#EFBDAD"/>
<path d="M273.498 283.084C273.692 282.851 273.809 282.579 273.925 282.307C273.847 282.579 273.692 282.851 273.498 283.084Z" fill="#EFBDAD"/>
<path d="M273.77 272.549L274.042 275.581C274.081 276.086 274.12 276.592 274.159 277.097C274.12 276.592 274.081 276.086 274.042 275.581L273.77 272.549Z" fill="#EFBDAD"/>
<path d="M274.159 277.136C274.236 278.652 274.197 280.207 274.081 281.723C274.081 281.84 274.042 281.918 274.042 282.034C274.081 281.918 274.081 281.84 274.081 281.723C274.197 280.207 274.236 278.652 274.159 277.136Z" fill="#EFBDAD"/>
<path d="M261.096 288.916L261.524 288.721L261.096 288.916Z" fill="#C7848F"/>
<path d="M279.213 273.015L273.77 272.549L279.213 273.015Z" fill="#C7848F"/>
<path d="M281.195 305.245C278.746 301.241 277.23 296.653 276.802 291.949C276.724 291.016 276.686 290.044 276.958 289.15C277.191 288.411 277.619 287.75 277.93 287.051C278.241 286.351 278.435 285.496 278.124 284.796C277.969 284.446 277.735 284.174 277.541 283.863C276.647 282.463 276.763 280.364 278.085 279.392C278.591 279.042 279.174 278.731 279.796 278.653C281.156 278.498 283.878 278.459 285.433 278.109L285.899 274.416L279.213 273.055L273.77 272.588L274.042 275.621C274.081 276.126 274.12 276.632 274.159 277.137C274.236 278.653 274.197 280.208 274.081 281.724C274.081 281.841 274.042 281.919 274.042 282.035C274.003 282.152 274.003 282.23 273.964 282.308C273.886 282.58 273.731 282.852 273.537 283.085C273.342 283.318 273.109 283.513 272.876 283.668L265.061 287.167L261.524 288.761L261.096 288.956L270.504 304.273L281.195 305.245Z" fill="#C7848F"/>
<path d="M302.033 290.471C302.033 290.471 306.543 292.104 309.536 302.523C312.53 312.903 310.508 338.873 313.424 352.635C313.424 352.635 309.536 355.784 300.945 354.929C300.945 354.929 297.485 344.665 296.513 338.367C295.541 332.108 297.212 312.747 297.212 312.747L298.184 294.475L302.033 290.471Z" fill="#0097B1"/>
<path d="M285.394 277.253C286.016 277.136 286.599 276.942 287.104 276.631C287.493 276.397 287.843 276.086 288.154 275.775C289.243 274.648 289.904 273.171 290.564 271.732C291.614 269.4 292.664 267.028 292.431 264.384C292.392 263.879 292.314 263.413 292.197 262.946C292.12 262.518 292.003 262.052 291.964 261.585C291.809 260.341 291.886 259.058 291.847 257.775C291.692 254.121 289.009 254.276 285.705 253.149C282.089 251.944 280.962 249.883 280.806 250.311C280.806 250.311 280.34 256.765 271.593 259.408C269.921 259.914 268.755 261.508 268.793 263.257C268.793 263.296 268.793 263.296 268.793 263.335C268.793 263.607 268.793 263.918 268.832 264.268C268.91 265.356 269.143 266.6 269.571 268.039C270.31 270.527 272.681 272.665 274.664 274.803C274.897 275.076 275.247 275.27 275.558 275.425C276.413 275.931 277.307 276.32 278.241 276.631C279.757 277.136 281.39 277.408 283.022 277.408C283.761 277.447 284.577 277.408 285.394 277.253Z" fill="#EFBDAD"/>
<path d="M271.476 260.652C278.746 257.892 280.301 252.993 280.651 251.089C280.223 252.838 278.513 257.348 271.554 259.486C269.882 259.991 268.716 261.585 268.755 263.335C268.755 263.374 268.755 263.374 268.755 263.412C268.755 263.646 268.755 263.84 268.794 264.073C268.988 262.557 269.999 261.235 271.476 260.652Z" fill="#C7848F"/>
<path d="M258.958 292.22C259.502 294.436 260.046 296.652 260.591 298.868C262.029 304.661 263.429 310.454 264.867 316.246C265.022 319.084 265.139 321.922 265.295 324.76C265.411 326.821 265.489 328.92 265.606 330.981C265.722 333.352 265.022 335.879 266.616 337.94C267.355 338.911 268.483 339.495 269.61 339.961C275.714 342.488 282.634 341.749 289.204 340.894C290.72 340.7 292.275 340.467 293.636 339.728C294.802 339.067 295.735 338.095 296.396 336.929C296.94 336.035 297.251 335.685 297.407 334.596C297.562 333.469 297.64 332.341 297.718 331.214C297.873 328.959 297.951 326.665 298.107 324.41C298.34 320.795 298.651 317.102 299.701 313.603C299.934 312.786 300.206 312.009 300.517 311.231C301.178 309.598 301.878 308.471 301.917 306.721C301.956 305.749 302.111 304.778 302.189 303.844C301.567 301.978 301.295 300.112 301.178 298.441C301.178 298.402 301.178 298.324 301.178 298.285C301.139 298.207 301.1 298.13 301.1 298.052C300.051 295.33 299.701 292.337 300.089 289.46C298.729 288.799 296.863 287.944 294.919 287.05C293.791 286.544 292.625 286 291.537 285.495C291.303 285.961 291.07 286.389 290.798 286.739C288.893 289.343 286.21 291.171 283.022 291.754C279.174 292.415 275.519 290.898 272.642 288.371C271.554 287.438 270.387 286.311 269.532 285.106L265.022 287.127L261.485 288.721L258.763 289.927C258.647 290.704 258.724 291.287 258.958 292.22Z" fill="white"/>
<path d="M276.919 376H251.493C252.193 370.596 253.087 365.62 254.254 361.538C254.37 361.188 254.448 360.799 254.565 360.41C254.72 359.788 254.876 359.166 254.992 358.544C255.498 356.212 255.925 353.685 256.236 351.119C256.314 350.536 256.353 349.991 256.431 349.369C257.286 341.127 257.208 331.953 256.742 323.477C255.886 307.149 253.593 293.309 253.593 293.309C253.593 293.309 253.709 292.57 255.148 291.365C255.809 290.821 256.742 290.16 258.102 289.421C260.124 288.333 263.079 287.05 267.394 285.689C267.705 285.572 267.977 285.495 268.288 285.417C268.288 285.417 268.327 285.495 268.444 285.611C268.483 285.689 268.521 285.767 268.599 285.845C269.066 286.661 270.115 288.76 271.282 292.726C271.748 294.32 272.254 296.186 272.759 298.441C274.703 307.11 276.608 320.989 277.036 342.566C277.036 342.683 277.036 342.838 277.036 342.955C277.036 343.343 277.036 343.693 277.074 344.082C277.074 344.549 277.074 345.015 277.113 345.482C277.113 345.521 277.113 345.598 277.113 345.637C277.113 346.259 277.152 346.92 277.152 347.581C277.152 347.698 277.152 347.814 277.152 347.931C277.152 348.086 277.152 348.242 277.152 348.436C277.152 349.525 277.191 350.575 277.191 351.663C277.191 359.866 277.074 368.069 276.919 376Z" fill="#00A5C2"/>
<path d="M255.148 291.365C255.148 291.365 244.262 296.38 230.228 340.155L242.94 343.81L261.679 316.207C261.679 316.246 264.012 297.352 255.148 291.365Z" fill="#0097B1"/>
<path d="M308.992 376H293.947C293.325 364.259 292.625 354.968 292.236 350.38C292.197 349.914 292.159 349.486 292.12 349.136C292.003 348.048 291.925 346.998 291.847 345.987C291.77 344.898 291.653 343.849 291.575 342.799C290.759 332.38 290.331 323.983 290.331 312.553C290.331 306.955 290.759 301.006 291.225 296.186C291.381 294.553 291.536 293.037 291.692 291.676C291.886 290.082 292.042 288.721 292.197 287.711C292.314 286.933 292.392 286.389 292.431 286.078C292.431 286 292.431 285.961 292.47 285.922C292.47 285.883 292.47 285.844 292.47 285.844C293.597 286.35 295.035 287.011 296.396 287.633C299.156 288.916 301.8 290.16 302.033 290.432C302.033 290.432 302.072 290.432 302.072 290.471C302.072 290.549 301.178 295.952 301.256 298.479C301.411 301.512 302.189 305.089 304.521 308.471C304.56 308.51 304.56 308.51 304.56 308.549C304.677 308.743 304.794 308.937 304.91 309.171C304.949 309.287 305.027 309.404 305.066 309.521C305.105 309.637 305.143 309.754 305.182 309.909C305.26 310.143 305.299 310.415 305.338 310.687C305.377 310.959 305.377 311.192 305.377 311.464V311.503C305.377 311.659 305.377 311.853 305.338 312.009C305.299 312.32 305.299 312.631 305.221 312.942C305.221 313.058 305.182 313.136 305.182 313.253C305.143 313.525 305.066 313.797 304.988 314.069C304.949 314.186 304.91 314.302 304.871 314.419C304.482 315.741 303.938 316.985 303.394 317.996C303.161 318.462 302.927 318.851 302.733 319.201C302.344 319.862 302.072 320.251 302.072 320.251V320.484L301.567 324.177L300.284 333.313C300.284 333.352 300.284 333.352 300.284 333.391C299.545 338.717 299.973 344.121 301.528 349.253C301.644 349.603 301.761 349.991 301.878 350.341C302.344 351.78 302.85 353.335 303.394 355.045C305.105 360.644 307.087 367.719 308.992 376Z" fill="#00A5C2"/>
<path d="M270.349 308.199C270.971 314.03 269.377 318.501 267.433 321.65C264.984 319.395 262.223 315.819 260.668 310.531C260.59 310.298 260.513 310.026 260.474 309.793C260.124 309.87 259.774 309.948 259.463 310.065C259.502 310.298 259.58 310.57 259.657 310.842C261.329 316.479 264.245 320.251 266.811 322.583C265.567 324.41 264.245 325.693 263.312 326.471C263.079 326.315 262.729 326.393 262.457 326.51C262.34 326.587 262.223 326.665 262.107 326.743C261.873 326.976 261.718 327.248 261.601 327.598C261.29 328.881 262.806 328.454 263.428 327.715C264.323 327.015 265.955 325.538 267.549 323.244C269.765 325.11 271.554 325.849 271.709 325.927V325.888C272.37 326.432 273.575 326.704 273.692 325.654C273.731 325.343 273.498 325.032 273.225 324.877C273.109 324.799 272.992 324.76 272.837 324.721C272.526 324.644 272.176 324.605 271.865 324.721C271.787 324.76 271.748 324.76 271.709 324.799C271.087 324.488 269.727 323.711 268.133 322.389C270.232 319.045 271.981 314.302 271.32 308.121C271.282 307.927 271.282 307.693 271.243 307.499C270.893 307.538 270.543 307.616 270.232 307.693C270.31 307.849 270.31 308.004 270.349 308.199Z" fill="white"/>
<path d="M296.629 309.948C297.29 310.22 297.757 310.881 297.757 311.659C297.757 312.67 296.94 313.486 295.93 313.486C294.919 313.486 294.102 312.67 294.102 311.659C294.102 310.765 294.724 310.026 295.58 309.87C295.619 309.443 295.657 309.015 295.657 308.549C294.025 308.704 292.781 310.026 292.781 311.659C292.781 313.369 294.18 314.769 295.93 314.769C297.64 314.769 299.04 313.369 299.04 311.659C299.04 310.181 298.029 308.976 296.668 308.626C296.668 309.054 296.668 309.521 296.629 309.948Z" fill="white"/>
<path d="M295.93 308.51C295.813 308.51 295.735 308.51 295.658 308.51C295.658 308.976 295.619 309.404 295.58 309.832C295.696 309.793 295.813 309.793 295.93 309.793C296.163 309.793 296.396 309.832 296.63 309.948C296.668 309.521 296.707 309.054 296.707 308.626C296.435 308.549 296.202 308.51 295.93 308.51Z" fill="white"/>
<path d="M296.629 309.948C296.435 309.87 296.202 309.793 295.93 309.793C295.813 309.793 295.696 309.793 295.58 309.832C294.724 309.987 294.102 310.726 294.102 311.62C294.102 312.631 294.919 313.447 295.93 313.447C296.94 313.447 297.757 312.631 297.757 311.62C297.757 310.881 297.29 310.22 296.629 309.948Z" fill="white"/>
<g opacity="0.5">
<path opacity="0.5" d="M296.629 309.948C296.435 309.87 296.202 309.793 295.93 309.793C295.813 309.793 295.696 309.793 295.58 309.832C294.724 309.987 294.102 310.726 294.102 311.62C294.102 312.631 294.919 313.447 295.93 313.447C296.94 313.447 297.757 312.631 297.757 311.62C297.757 310.881 297.29 310.22 296.629 309.948Z" fill="#9DADB1"/>
</g>
<g opacity="0.35">
<path opacity="0.35" d="M287.921 265.551C289.853 265.551 291.42 263.984 291.42 262.052C291.42 260.119 289.853 258.553 287.921 258.553C285.989 258.553 284.422 260.119 284.422 262.052C284.422 263.984 285.989 265.551 287.921 265.551Z" fill="white"/>
</g>
<g opacity="0.35">
<path opacity="0.35" d="M278.552 266.134C280.484 266.134 282.05 264.567 282.05 262.635C282.05 260.703 280.484 259.136 278.552 259.136C276.619 259.136 275.053 260.703 275.053 262.635C275.053 264.567 276.619 266.134 278.552 266.134Z" fill="white"/>
</g>
<path d="M287.921 265.862C287.843 265.862 287.765 265.862 287.688 265.862C286.677 265.784 285.744 265.356 285.083 264.579C284.422 263.801 284.072 262.829 284.15 261.819C284.266 259.719 286.094 258.125 288.193 258.281C290.292 258.397 291.886 260.225 291.731 262.324C291.653 263.335 291.225 264.268 290.448 264.929C289.709 265.512 288.854 265.862 287.921 265.862ZM287.921 258.825C286.249 258.825 284.811 260.147 284.733 261.819C284.694 262.674 284.966 263.49 285.511 264.151C286.094 264.812 286.871 265.162 287.727 265.24C288.582 265.279 289.398 265.006 290.059 264.462C290.72 263.879 291.07 263.101 291.148 262.246C291.264 260.497 289.904 258.942 288.154 258.825C288.038 258.825 287.96 258.825 287.921 258.825Z" fill="#042630"/>
<path d="M278.552 266.445C278.474 266.445 278.396 266.445 278.319 266.445C277.308 266.367 276.375 265.94 275.714 265.162C275.053 264.384 274.703 263.413 274.781 262.402C274.858 261.391 275.286 260.458 276.064 259.797C276.841 259.136 277.813 258.786 278.824 258.864C279.835 258.942 280.768 259.369 281.429 260.147C282.09 260.924 282.439 261.896 282.362 262.907C282.284 263.918 281.856 264.851 281.079 265.512C280.34 266.134 279.485 266.445 278.552 266.445ZM278.552 259.447C277.774 259.447 277.036 259.719 276.452 260.264C275.792 260.847 275.442 261.624 275.364 262.48C275.325 263.335 275.597 264.151 276.141 264.812C276.725 265.473 277.502 265.823 278.357 265.901C279.213 265.94 280.029 265.667 280.69 265.123C281.351 264.579 281.701 263.762 281.779 262.907C281.817 262.052 281.545 261.235 281.001 260.575C280.418 259.914 279.64 259.564 278.785 259.486C278.668 259.447 278.591 259.447 278.552 259.447Z" fill="#042630"/>
<path d="M275.053 261.857H275.014C273.42 261.546 268.988 260.769 267.822 261.119C267.666 261.158 267.511 261.08 267.472 260.924C267.433 260.769 267.511 260.613 267.666 260.574C269.182 260.108 274.897 261.235 275.131 261.274C275.286 261.313 275.403 261.469 275.364 261.624C275.286 261.741 275.169 261.857 275.053 261.857Z" fill="#042630"/>
<path d="M291.148 261.041C291.031 261.041 290.915 260.963 290.876 260.847C290.798 260.691 290.876 260.536 291.031 260.458L292.003 260.069C292.159 259.991 292.314 260.069 292.392 260.225C292.47 260.38 292.392 260.536 292.236 260.613L291.264 261.002C291.226 261.041 291.187 261.041 291.148 261.041Z" fill="#042630"/>
<path d="M283.644 268.117C283.489 268.117 283.372 268 283.372 267.883C283.333 267.728 283.45 267.572 283.606 267.572C283.955 267.534 284.966 267.3 285.277 266.756C285.394 266.562 285.394 266.289 285.277 266.017C284.655 264.423 283.1 260.924 283.061 260.886C282.984 260.73 283.061 260.575 283.217 260.497C283.372 260.419 283.528 260.497 283.606 260.652C283.606 260.691 285.199 264.229 285.822 265.823C286.016 266.289 285.977 266.678 285.744 267.067C285.238 267.961 283.722 268.156 283.644 268.156C283.683 268.117 283.644 268.117 283.644 268.117Z" fill="#C7848F"/>
<path d="M281.973 262.285C281.895 262.285 281.779 262.246 281.74 262.168C281.662 262.052 281.701 261.857 281.817 261.78C281.856 261.741 283.217 260.847 284.578 261.624C284.733 261.702 284.772 261.896 284.694 262.013C284.617 262.168 284.422 262.207 284.306 262.13C283.256 261.546 282.206 262.246 282.167 262.285C282.09 262.246 282.012 262.285 281.973 262.285Z" fill="#042630"/>
<path d="M269.96 262.13C269.96 262.13 267.511 259.175 266.383 260.613C265.217 262.052 267.044 268.7 271.437 268.039L269.96 262.13Z" fill="#EFBDAD"/>
<path d="M262.029 258.631C261.329 258.631 260.59 258.592 259.891 258.553C259.735 258.553 259.619 258.397 259.619 258.242C259.619 258.086 259.774 257.97 259.93 257.97C264.711 258.397 269.649 257.348 273.886 255.054C274.042 254.976 274.197 255.015 274.275 255.171C274.353 255.326 274.314 255.482 274.158 255.559C270.504 257.542 266.228 258.631 262.029 258.631Z" fill="#042630"/>
<path d="M254.448 282.423C254.292 282.423 254.176 282.307 254.176 282.151C254.02 280.868 254.526 279.508 255.459 278.613C255.886 278.225 256.353 277.914 256.819 277.642C257.053 277.486 257.325 277.33 257.558 277.175C258.102 276.786 258.763 276.164 258.841 275.387C258.88 274.765 258.569 274.181 258.258 273.521C257.986 272.976 257.675 272.432 257.597 271.81C257.403 270.488 258.258 269.322 259.113 268.661C260.046 267.961 261.213 267.572 262.262 267.261C262.418 267.222 262.573 267.3 262.612 267.456C262.651 267.611 262.573 267.767 262.418 267.806C261.368 268.117 260.318 268.428 259.463 269.089C258.569 269.788 258.063 270.799 258.18 271.693C258.258 272.199 258.491 272.704 258.763 273.21C259.113 273.87 259.502 274.57 259.424 275.387C259.346 276.397 258.53 277.175 257.908 277.603C257.636 277.797 257.403 277.953 257.13 278.108C256.664 278.38 256.236 278.652 255.847 279.002C255.031 279.78 254.603 280.946 254.759 282.035C254.759 282.268 254.642 282.384 254.448 282.423C254.487 282.423 254.448 282.423 254.448 282.423Z" fill="#042630"/>
<path d="M304.56 274.22C304.444 274.22 304.327 274.143 304.288 274.026C303.899 272.937 304.055 271.654 304.755 270.099C304.871 269.788 305.027 269.477 305.182 269.166C305.61 268.311 305.999 267.495 306.154 266.6C306.504 264.657 305.532 262.518 303.861 261.469C303.433 261.235 303.005 261.041 302.539 260.847C302.033 260.613 301.489 260.419 301.023 260.069C300.089 259.447 299.273 258.281 299.623 257.114C299.662 256.959 299.817 256.881 299.973 256.92C300.128 256.959 300.206 257.114 300.167 257.27C299.895 258.164 300.556 259.097 301.334 259.564C301.761 259.836 302.267 260.069 302.772 260.263C303.239 260.458 303.705 260.652 304.172 260.924C306.077 262.091 307.165 264.423 306.737 266.639C306.582 267.611 306.154 268.505 305.727 269.361C305.571 269.672 305.455 269.944 305.299 270.255C304.677 271.693 304.521 272.821 304.871 273.754C304.91 273.909 304.832 274.065 304.677 274.143C304.599 274.22 304.56 274.22 304.56 274.22Z" fill="#042630"/>
<path d="M286.716 271.538C286.21 271.577 285.666 271.499 285.2 271.266C284.966 271.149 284.733 271.032 284.5 270.955C284.266 270.916 283.994 270.955 283.761 271.071C283.683 271.11 283.606 271.188 283.528 271.149C283.489 271.149 283.45 271.11 283.372 271.071C282.984 270.799 282.478 270.799 282.012 270.916C281.545 271.032 281.156 271.266 280.69 271.382C280.223 271.499 279.601 271.499 278.59 270.994C278.59 270.994 280.107 273.909 284.189 273.326C285.044 273.287 286.094 272.704 286.716 271.538Z" fill="#C7848F"/>
<path d="M284.228 273.404C285.044 273.287 286.094 272.743 286.716 271.577C285.783 272.276 284.15 272.238 284.15 272.238C283.606 272.432 282.828 272.238 282.828 272.238C279.796 272.354 278.59 271.11 278.59 271.11C278.59 271.11 280.146 273.987 284.228 273.404Z" fill="#BC7D89"/>
<path d="M268.327 284.523C267.822 285.067 267.394 285.689 266.966 286.272C263.662 291.365 263.856 297.857 263.973 299.646C263.079 299.84 262.223 300.307 261.446 301.007C259.308 302.989 258.569 306.372 259.424 310.065C259.774 309.948 260.085 309.87 260.435 309.793C259.658 306.449 260.28 303.495 262.146 301.784C263.001 301.007 263.973 300.579 264.984 300.579C265.411 300.579 265.839 300.657 266.267 300.812C268.327 301.551 269.766 304.039 270.271 307.654C270.621 307.616 270.932 307.538 271.282 307.46C270.738 303.495 269.066 300.734 266.655 299.84C266.111 299.646 265.567 299.529 265.023 299.529C264.906 297.663 264.789 290.238 268.988 285.378C269.027 285.339 269.105 285.261 269.144 285.222C270.465 283.706 272.137 282.618 274.081 281.879V281.84C274.081 281.801 274.081 281.762 274.12 281.724C274.159 281.374 274.159 281.063 274.198 280.713C271.826 281.49 269.882 282.773 268.327 284.523Z" fill="#042630"/>
<path d="M292.275 285.845C292.275 285.845 292.236 285.806 292.275 285.845C291.886 285.261 291.459 284.717 290.992 284.251C289.398 282.501 287.454 281.257 285.2 280.557C285.2 280.791 285.2 281.024 285.2 281.257C285.2 281.335 285.238 281.413 285.238 281.49C285.238 281.568 285.277 281.607 285.277 281.685C287.143 282.346 288.776 283.434 290.176 284.911L290.215 284.95C295.424 290.626 296.007 301.084 295.657 308.549C295.774 308.549 295.852 308.549 295.93 308.549C296.202 308.549 296.435 308.587 296.707 308.665C297.096 300.812 296.396 291.715 292.275 285.845Z" fill="#042630"/>
<path d="M328.618 279.983C328.618 307.311 306.43 329.465 279.059 329.465C251.688 329.465 229.5 307.311 229.5 279.983C229.5 252.655 251.688 230.5 279.059 230.5C306.43 230.5 328.618 252.655 328.618 279.983Z" stroke="#FF6C2D"/>
</g>
</svg>
